#!OML:ASF F:\VICON\USERDATA\INSTALL\rory3\rory3.ASF
:FULLY-SPECIFIED
:DEGREES
481
root -0.0346001 18.0146 -1.04712 2.25421 -12.0469 1.31122
lowerback -0.866501 -2.32788 -3.04871
upperback -0.235454 -3.0855 1.70533
thorax 0.498867 -1.55084 3.41342
lowerneck -27.2466 -0.873324 -8.25939
upperneck 25.2622 1.83282 1.47515
head 12.9054 0.176216 2.27844
rclavicle -2.41772e-014 -4.77083e-015
rhumerus -31.936 -3.83436 -82.6816
rradius 31.6259
rwrist 20.0811
rhand -17.9942 8.81655
rfingers 7.12502
rthumb 8.2759 -21.0013
lclavicle -2.41772e-014 -4.77083e-015
lhumerus -21.7816 -6.01892 90.6387
lradius 69.8998
lwrist -1.04556
lhand -29.7759 22.3808
lfingers 7.12502
lthumb -3.10109 52.338
rfemur -8.74155 10.0558 14.8165
rtibia 24.1263
rfoot -15.0482 -3.14231
rtoes 5.33064
lfemur 0.79272 -1.85919 -21.8475
ltibia 10.7497
lfoot -9.39553 7.32762
ltoes -11.4485
482
root -0.034616 18.0143 -1.04654 2.25972 -12.1576 1.28512
lowerback -0.846083 -2.30203 -3.00512
upperback -0.266578 -3.05197 1.70399
thorax 0.450373 -1.53263 3.39004
lowerneck -27.2385 -0.833933 -8.14921
upperneck 25.2958 1.88432 1.33804
head 12.9179 0.188435 2.21667
rclavicle 2.05494e-014 -7.15625e-015
rhumerus -32.0336 -3.83166 -82.682
rradius 31.6754
rwrist 20.0332
rhand -17.9273 8.80526
rfingers 7.12502
rthumb 8.34046 -21.0101
lclavicle 2.05494e-014 -7.15625e-015
lhumerus -21.825 -5.97116 90.6053
lradius 69.8961
lwrist -1.10045
lhand -29.6689 22.1196
lfingers 7.12502
lthumb -2.99769 52.0783
rfemur -8.77167 10.1069 14.8424
rtibia 24.1396
rfoot -15.0281 -3.1126
rtoes 5.20265
lfemur 0.810351 -1.78731 -21.8188
ltibia 10.7335
lfoot -9.4281 7.35269
ltoes -11.3295
483
root -0.0345675 18.0134 -1.04497 2.22448 -12.256 1.30683
lowerback -0.815546 -2.27591 -3.03509
upperback -0.289538 -3.01778 1.71475
thorax 0.409035 -1.51448 3.42059
lowerneck -27.1715 -0.81196 -8.1621
upperneck 25.2957 1.92591 1.29978
head 12.9034 0.199931 2.21079
rclavicle -4.8491e-014 1.66979e-014
rhumerus -32.0842 -3.87957 -82.6095
rradius 31.6211
rwrist 20.1101
rhand -17.8702 8.66367
rfingers 7.12502
rthumb 8.39561 -21.1495
lclavicle -4.8491e-014 1.66979e-014
lhumerus -21.9054 -5.88448 90.6395
lradius 69.91
lwrist -1.17562
lhand -29.5932 21.9757
lfingers 7.12502
lthumb -2.92459 51.9354
rfemur -8.7705 10.179 14.821
rtibia 24.1779
rfoot -15.0333 -3.04867
rtoes 5.26813
lfemur 0.889579 -1.75435 -21.8499
ltibia 10.6684
lfoot -9.41238 7.41398
ltoes -11.2844
484
root -0.0345252 18.0127 -1.04404 2.18572 -12.3352 1.35294
lowerback -0.776887 -2.24762 -3.07972
upperback -0.319395 -2.98079 1.71601
thorax 0.356022 -1.49457 3.45013
lowerneck -27.1026 -0.811104 -8.21034
upperneck 25.2943 1.93799 1.3073
head 12.8884 0.201754 2.22318
rclavicle -1.14053e-014 1.82882e-014
rhumerus -32.1312 -3.98921 -82.5236
rradius 31.5265
rwrist 20.2089
rhand -17.8582 8.52812
rfingers 7.12502
rthumb 8.40716 -21.2846
lclavicle -1.14053e-014 1.82882e-014
lhumerus -21.9826 -5.81513 90.6794
lradius 69.9492
lwrist -1.20765
lhand -29.4849 22.0699
lfingers 7.12502
lthumb -2.82005 52.031
rfemur -8.76201 10.2219 14.7761
rtibia 24.2098
rfoot -15.0269 -3.01402
rtoes 4.71836
lfemur 0.968643 -1.80242 -21.917
ltibia 10.5904
lfoot -9.36385 7.54574
ltoes -11.5973
485
root -0.0344201 18.0118 -1.04213 2.19873 -12.3807 1.35598
lowerback -0.824061 -2.23198 -3.04281
upperback -0.337208 -2.95889 1.69107
thorax 0.359162 -1.4833 3.40258
lowerneck -27.0457 -0.79769 -8.21521
upperneck 25.2968 1.93536 1.36397
head 12.8772 0.208575 2.24526
rclavicle 1.77664e-015 -2.0276e-014
rhumerus -32.1718 -4.12534 -82.5001
rradius 31.464
rwrist 20.2226
rhand -17.7075 8.34195
rfingers 7.12502
rthumb 8.55263 -21.4648
lclavicle 1.77664e-015 -2.0276e-014
lhumerus -21.9978 -5.83069 90.6515
lradius 69.9413
lwrist -1.1924
lhand -29.4337 22.1145
lfingers 7.12502
lthumb -2.7706 52.0763
rfemur -8.78489 10.2094 14.764
rtibia 24.2313
rfoot -15.0013 -2.99335
rtoes 4.25696
lfemur 1.01341 -1.78857 -21.9284
ltibia 10.4848
lfoot -9.29105 7.58439
ltoes -11.8155
486
root -0.034821 18.0127 -1.03982 2.18089 -12.4119 1.40636
lowerback -0.840239 -2.23842 -3.10017
upperback -0.362425 -2.96674 1.69787
thorax 0.346236 -1.48666 3.44158
lowerneck -26.979 -0.773526 -8.26418
upperneck 25.3056 1.9824 1.36781
head 12.8649 0.224718 2.26287
rclavicle -3.74088e-014 8.74653e-015
rhumerus -32.1975 -4.22347 -82.4126
rradius 31.3142
rwrist 20.3954
rhand -17.5225 8.08384
rfingers 7.12502
rthumb 8.73118 -21.7156
lclavicle -3.74088e-014 8.74653e-015
lhumerus -22.0114 -5.82491 90.6657
lradius 69.8904
lwrist -1.19098
lhand -29.4772 22.1589
lfingers 7.12502
lthumb -2.81255 52.1201
rfemur -8.78525 10.1936 14.7026
rtibia 24.2479
rfoot -14.9779 -2.94192
rtoes 4.23453
lfemur 1.08533 -1.83578 -21.9948
ltibia 10.3931
lfoot -9.24891 7.67227
ltoes -11.8418
487
root -0.0346468 18.0143 -1.03945 2.17011 -12.4057 1.41024
lowerback -0.814654 -2.27251 -3.13836
upperback -0.40221 -3.013 1.7432
thorax 0.29929 -1.50844 3.51099
lowerneck -26.8352 -0.720811 -8.32061
upperneck 25.2562 2.07272 1.34108
head 12.8121 0.257127 2.27572
rclavicle 5.35228e-014 -1.98785e-015
rhumerus -32.2468 -4.24161 -82.3193
rradius 31.2087
rwrist 20.5202
rhand -17.4728 8.07153
rfingers 7.12502
rthumb 8.77915 -21.7259
lclavicle 5.35228e-014 -1.98785e-015
lhumerus -22.0201 -5.7843 90.6719
lradius 69.8206
lwrist -1.24788
lhand -29.6241 22.3033
lfingers 7.12502
lthumb -2.95443 52.2626
rfemur -8.78038 10.2287 14.6993
rtibia 24.248
rfoot -14.9983 -2.95409
rtoes 4.35322
lfemur 1.11275 -1.9009 -21.9982
ltibia 10.3647
lfoot -9.23604 7.69792
ltoes -11.5238
488
root -0.0352139 18.0148 -1.04106 2.17187 -12.4056 1.39413
lowerback -0.788695 -2.28444 -3.14844
upperback -0.42615 -3.02972 1.76569
thorax 0.263314 -1.5158 3.54128
lowerneck -26.7361 -0.652433 -8.26276
upperneck 25.1835 2.16786 1.22816
head 12.7609 0.291384 2.23708
rclavicle -3.03147e-015 1.19271e-015
rhumerus -32.3102 -4.38043 -82.2324
rradius 31.1571
rwrist 20.6087
rhand -17.504 8.23363
rfingers 7.12502
rthumb 8.74903 -21.565
lclavicle -3.03147e-015 1.19271e-015
lhumerus -21.9919 -5.81029 90.647
lradius 69.7756
lwrist -1.17736
lhand -29.6997 22.4106
lfingers 7.12502
lthumb -3.02748 52.3688
rfemur -8.78622 10.2267 14.7214
rtibia 24.2438
rfoot -15.0256 -2.95174
rtoes 4.58325
lfemur 1.10864 -1.86918 -21.9711
ltibia 10.3553
lfoot -9.22099 7.6619
ltoes -11.5873
489
root -0.0346457 18.0144 -1.04281 2.20916 -12.4238 1.33935
lowerback -0.779709 -2.27479 -3.07621
upperback -0.471241 -3.01771 1.76906
thorax 0.20744 -1.50805 3.50602
lowerneck -26.6646 -0.581103 -8.20458
upperneck 25.2057 2.24451 1.20599
head 12.7523 0.327173 2.2325
rclavicle -1.48219e-014 7.15625e-015
rhumerus -32.4252 -4.44052 -82.2045
rradius 31.1526
rwrist 20.5083
rhand -17.4072 8.21139
rfingers 7.12502
rthumb 8.84246 -21.5834
lclavicle -1.48219e-014 7.15625e-015
lhumerus -22.0022 -5.89709 90.6357
lradius 69.7897
lwrist -0.947845
lhand -29.8188 22.6183
lfingers 7.12502
lthumb -3.14251 52.5749
rfemur -8.81728 10.2324 14.7746
rtibia 24.2356
rfoot -14.9908 -2.95094
rtoes 4.58757
lfemur 1.06876 -1.84051 -21.9086
ltibia 10.3718
lfoot -9.27841 7.64279
ltoes -11.4106
490
root -0.034537 18.0145 -1.04307 2.22497 -12.4269 1.36058
lowerback -0.774924 -2.30059 -3.09682
upperback -0.524528 -3.05233 1.77882
thorax 0.154546 -1.52357 3.52867
lowerneck -26.5316 -0.511974 -8.21951
upperneck 25.175 2.33529 1.20106
head 12.709 0.366661 2.24739
rclavicle -2.09221e-014 7.95139e-016
rhumerus -32.5592 -4.4343 -82.1671
rradius 31.1507
rwrist 20.5329
rhand -17.3736 8.21458
rfingers 7.12502
rthumb 8.87482 -21.5788
lclavicle -2.09221e-014 7.95139e-016
lhumerus -22.0505 -5.85808 90.6388
lradius 69.8151
lwrist -0.846091
lhand -29.7549 22.7972
lfingers 7.12502
lthumb -3.08074 52.7547
rfemur -8.84966 10.211 14.7447
rtibia 24.2368
rfoot -14.9048 -2.96734
rtoes 4.27932
lfemur 1.01747 -1.87985 -21.94
ltibia 10.4275
lfoot -9.32051 7.69954
ltoes -11.3186
